<?xml version="1.0" encoding="utf-8"?>
<svg viewBox="0 0 180 72" xmlns="http://www.w3.org/2000/svg">
  <rect style="fill: rgb(255, 255, 255);" width="180" height="72" rx="8" ry="8"/>
  <path d="M 62.442 23.598 C 62.458 23.658 62.467 23.721 62.467 23.783 L 62.467 33.507 C 62.467 33.761 62.331 33.996 62.111 34.122 L 53.95 38.821 L 53.95 48.134 C 53.95 48.387 53.815 48.621 53.596 48.749 L 36.56 58.555 C 36.521 58.578 36.478 58.591 36.436 58.607 C 36.419 58.612 36.405 58.621 36.388 58.627 C 36.269 58.657 36.144 58.657 36.024 58.627 C 36.005 58.621 35.987 58.61 35.968 58.603 C 35.93 58.589 35.889 58.577 35.851 58.555 L 18.82 48.749 C 18.6 48.622 18.464 48.387 18.463 48.134 L 18.463 18.963 C 18.463 18.899 18.472 18.838 18.488 18.777 C 18.493 18.757 18.506 18.738 18.513 18.717 C 18.527 18.68 18.539 18.642 18.558 18.608 C 18.571 18.585 18.591 18.566 18.607 18.544 C 18.627 18.516 18.646 18.487 18.67 18.462 C 18.69 18.442 18.717 18.427 18.74 18.41 C 18.766 18.388 18.789 18.365 18.818 18.348 L 18.819 18.348 L 27.335 13.445 C 27.554 13.318 27.825 13.318 28.044 13.445 L 36.56 18.348 L 36.562 18.348 C 36.59 18.366 36.615 18.388 36.64 18.409 C 36.664 18.426 36.689 18.442 36.709 18.461 C 36.734 18.487 36.752 18.516 36.774 18.544 C 36.788 18.566 36.809 18.585 36.821 18.608 C 36.841 18.643 36.853 18.68 36.867 18.717 C 36.874 18.738 36.887 18.757 36.892 18.778 C 36.908 18.838 36.916 18.9 36.917 18.963 L 36.917 37.182 L 44.014 33.097 L 44.014 23.782 C 44.014 23.72 44.022 23.657 44.038 23.598 C 44.044 23.577 44.056 23.558 44.063 23.538 C 44.077 23.5 44.09 23.462 44.109 23.428 C 44.123 23.405 44.142 23.386 44.157 23.365 C 44.179 23.337 44.196 23.308 44.221 23.283 C 44.241 23.262 44.267 23.247 44.29 23.229 C 44.317 23.208 44.339 23.185 44.368 23.168 L 52.886 18.265 C 53.106 18.138 53.375 18.138 53.596 18.265 L 62.112 23.168 C 62.142 23.185 62.165 23.208 62.192 23.228 C 62.213 23.247 62.239 23.262 62.26 23.282 C 62.285 23.308 62.303 23.337 62.323 23.365 C 62.34 23.386 62.359 23.405 62.371 23.428 C 62.392 23.462 62.403 23.5 62.418 23.538 C 62.425 23.558 62.437 23.577 62.442 23.598 Z M 61.047 33.097 L 61.047 25.011 L 58.067 26.726 L 53.95 29.097 L 53.95 37.182 L 61.048 33.097 L 61.047 33.097 Z M 52.531 47.723 L 52.531 39.632 L 48.481 41.945 L 36.916 48.545 L 36.916 56.713 L 52.531 47.723 Z M 19.883 20.19 L 19.883 47.723 L 35.496 56.712 L 35.496 48.546 L 27.339 43.93 L 27.337 43.928 L 27.333 43.927 C 27.306 43.911 27.283 43.888 27.257 43.868 C 27.235 43.85 27.21 43.836 27.19 43.817 L 27.188 43.814 C 27.165 43.792 27.149 43.764 27.13 43.74 C 27.112 43.716 27.09 43.695 27.076 43.67 L 27.076 43.668 C 27.059 43.641 27.05 43.609 27.039 43.579 C 27.027 43.553 27.012 43.528 27.004 43.499 C 26.996 43.465 26.994 43.43 26.99 43.395 C 26.987 43.368 26.98 43.342 26.98 43.315 L 26.98 43.314 L 26.98 24.277 L 22.863 21.905 L 19.883 20.191 L 19.883 20.19 Z M 27.691 14.879 L 20.594 18.963 L 27.688 23.048 L 34.784 18.962 L 27.688 14.879 L 27.691 14.879 Z M 31.381 40.369 L 35.497 38 L 35.497 20.19 L 32.517 21.906 L 28.399 24.277 L 28.399 42.086 L 31.381 40.369 Z M 53.241 19.699 L 46.146 23.783 L 53.241 27.868 L 60.334 23.782 L 53.241 19.699 Z M 52.531 29.097 L 48.414 26.726 L 45.433 25.011 L 45.433 33.097 L 49.55 35.466 L 52.531 37.182 L 52.531 29.097 Z M 36.205 47.318 L 46.612 41.377 L 51.814 38.408 L 44.724 34.327 L 36.561 39.026 L 29.122 43.309 L 36.205 47.318 Z" fill="#FF2D20" fill-rule="evenodd"/>
  <path d="M 74.233 24.95 L 74.233 43.48 L 80.937 43.48 L 80.937 46.677 L 70.663 46.677 L 70.663 24.95 L 74.233 24.95 Z M 93.538 34.169 L 93.538 32.213 L 96.922 32.213 L 96.922 46.677 L 93.539 46.677 L 93.539 44.721 C 93.083 45.446 92.438 46.015 91.598 46.428 C 90.761 46.843 89.917 47.049 89.069 47.049 C 87.972 47.049 86.968 46.848 86.058 46.445 C 85.171 46.058 84.373 45.492 83.714 44.784 C 83.061 44.078 82.546 43.257 82.195 42.363 C 81.828 41.434 81.644 40.443 81.65 39.445 C 81.65 38.432 81.831 37.463 82.194 36.542 C 82.543 35.641 83.059 34.815 83.714 34.105 C 84.373 33.398 85.171 32.832 86.058 32.445 C 86.968 32.042 87.972 31.841 89.069 31.841 C 89.917 31.841 90.761 32.047 91.598 32.462 C 92.437 32.876 93.083 33.444 93.539 34.169 L 93.538 34.169 Z M 93.228 41.214 C 93.436 40.648 93.541 40.049 93.539 39.445 C 93.539 38.823 93.434 38.234 93.228 37.677 C 93.034 37.139 92.739 36.644 92.359 36.217 C 91.98 35.798 91.521 35.46 91.009 35.223 C 90.481 34.976 89.897 34.851 89.256 34.851 C 88.613 34.851 88.034 34.976 87.517 35.223 C 87.011 35.463 86.557 35.801 86.182 36.217 C 85.803 36.642 85.513 37.138 85.33 37.676 C 85.131 38.244 85.03 38.843 85.033 39.445 C 85.033 40.065 85.132 40.655 85.329 41.213 C 85.525 41.773 85.81 42.259 86.182 42.673 C 86.557 43.089 87.012 43.427 87.518 43.666 C 88.034 43.915 88.613 44.039 89.255 44.039 C 89.897 44.039 90.481 43.915 91.009 43.666 C 91.521 43.429 91.98 43.092 92.359 42.673 C 92.739 42.247 93.034 41.751 93.228 41.214 Z M 99.591 46.677 L 99.591 32.213 L 108.779 32.213 L 108.779 35.543 L 102.973 35.543 L 102.973 46.679 L 99.591 46.679 L 99.591 46.677 Z M 121.039 34.169 L 121.039 32.213 L 124.422 32.213 L 124.422 46.677 L 121.039 46.677 L 121.039 44.721 C 120.584 45.446 119.938 46.015 119.099 46.428 C 118.261 46.843 117.418 47.049 116.569 47.049 C 115.473 47.049 114.469 46.848 113.559 46.445 C 112.672 46.058 111.873 45.492 111.215 44.784 C 110.562 44.078 110.047 43.257 109.695 42.363 C 109.329 41.434 109.144 40.443 109.151 39.445 C 109.151 38.432 109.332 37.463 109.695 36.542 C 110.044 35.641 110.559 34.815 111.214 34.105 C 111.873 33.398 112.672 32.832 113.559 32.445 C 114.469 32.042 115.473 31.841 116.569 31.841 C 117.417 31.841 118.261 32.047 119.099 32.462 C 119.938 32.876 120.584 33.444 121.039 34.169 Z M 120.729 41.214 C 120.937 40.648 121.042 40.048 121.039 39.445 C 121.039 38.823 120.934 38.234 120.729 37.677 C 120.535 37.139 120.239 36.644 119.86 36.217 C 119.481 35.798 119.022 35.46 118.509 35.223 C 117.982 34.976 117.397 34.851 116.756 34.851 C 116.114 34.851 115.534 34.976 115.018 35.223 C 114.512 35.463 114.058 35.801 113.682 36.217 C 113.304 36.642 113.013 37.138 112.83 37.676 C 112.631 38.244 112.531 38.843 112.534 39.445 C 112.534 40.065 112.632 40.655 112.83 41.213 C 113.026 41.773 113.311 42.259 113.682 42.673 C 114.057 43.089 114.512 43.427 115.018 43.666 C 115.534 43.915 116.114 44.039 116.756 44.039 C 117.397 44.039 117.982 43.915 118.509 43.666 C 119.022 43.429 119.481 43.092 119.86 42.673 C 120.239 42.247 120.535 41.751 120.729 41.214 Z M 137.986 32.213 L 141.413 32.213 L 135.86 46.677 L 131.607 46.677 L 126.055 32.213 L 129.481 32.213 L 133.734 43.289 L 137.986 32.213 Z M 148.792 31.841 C 153.398 31.841 156.54 35.924 155.95 40.702 L 144.726 40.702 C 144.726 41.95 145.986 44.362 148.978 44.362 C 151.55 44.362 153.275 42.099 153.277 42.097 L 155.562 43.866 C 153.518 46.047 151.845 47.05 149.225 47.05 C 144.542 47.05 141.369 44.088 141.369 39.445 C 141.369 35.246 144.649 31.841 148.791 31.841 L 148.792 31.841 Z M 144.735 38.188 L 152.843 38.188 C 152.818 37.91 152.378 34.528 148.764 34.528 C 145.151 34.528 144.76 37.91 144.735 38.188 Z M 158.153 46.677 L 158.153 24.95 L 161.536 24.95 L 161.536 46.677 L 158.153 46.677 Z" fill="#FF2D20" fill-rule="evenodd"/>
</svg>